<?xml version="1.0" standalone="no"?>
<!DOCTYPE svg PUBLIC "-//W3C//DTD SVG 20010904//EN"
 "http://www.w3.org/TR/2001/REC-SVG-20010904/DTD/svg10.dtd">
<svg version="1.0" xmlns="http://www.w3.org/2000/svg"
 width="700.000000pt" height="700.000000pt" viewBox="0 0 700.000000 700.000000"
 preserveAspectRatio="xMidYMid meet">
<metadata>
Created by potrace 1.11, written by Peter Selinger 2001-2013
</metadata>
<g transform="translate(0.000000,700.000000) scale(0.100000,-0.100000)"
fill="#000000" stroke="none">
<path d="M0 3500 l0 -3500 3500 0 3500 0 0 3500 0 3500 -3500 0 -3500 0 0
-3500z m3775 2790 c0 -88 2 -160 5 -161 3 0 13 -2 23 -4 9 -2 50 -6 90 -10 76
-6 93 -8 172 -19 48 -7 123 -20 175 -32 14 -3 36 -7 50 -10 34 -7 151 -41 225
-65 104 -35 297 -136 387 -205 178 -133 318 -302 414 -499 52 -107 104 -253
118 -327 l7 -37 -48 -7 c-26 -3 -57 -8 -68 -10 -11 -3 -51 -9 -90 -14 -38 -6
-95 -15 -125 -20 -71 -12 -94 -16 -220 -35 -58 -9 -116 -18 -130 -21 -14 -2
-41 -7 -60 -9 -19 -3 -51 -8 -70 -11 -19 -4 -44 -8 -55 -9 -39 -6 -101 -15
-125 -20 -14 -3 -45 -8 -70 -11 -25 -3 -77 -12 -116 -18 l-72 -13 -22 56 c-73
179 -139 283 -223 350 -49 39 -160 111 -170 111 -1 0 -2 -218 -2 -485 l0 -486
40 -10 c22 -5 61 -17 86 -25 25 -8 54 -16 65 -19 42 -8 420 -131 479 -155 17
-7 39 -16 50 -20 355 -138 548 -250 710 -415 191 -193 297 -389 357 -663 18
-80 22 -130 22 -287 0 -104 -3 -206 -6 -225 -4 -19 -9 -51 -13 -70 -41 -236
-176 -503 -360 -713 -168 -193 -419 -369 -645 -454 -90 -34 -95 -36 -105 -38
-5 -2 -44 -12 -85 -24 -125 -35 -316 -63 -519 -76 -35 -3 -67 -7 -70 -11 -3
-3 -6 -146 -6 -317 l0 -312 -250 -2 c-138 -1 -252 3 -255 8 -3 5 -6 148 -5
319 0 269 -2 310 -15 311 -8 0 -24 2 -35 4 -11 2 -49 7 -85 10 -36 3 -72 7
-80 10 -8 2 -37 6 -65 10 -27 3 -68 10 -90 15 -22 5 -56 11 -75 14 -19 3 -71
15 -115 26 -360 94 -585 218 -820 455 -176 177 -273 327 -358 556 -35 92 -91
301 -98 364 -4 28 -2 30 41 36 51 7 134 18 200 25 25 2 79 9 120 14 41 5 98
12 125 15 61 7 130 15 170 20 17 2 62 7 100 10 39 4 77 8 85 10 8 2 46 7 85
11 38 3 76 7 85 9 8 2 44 6 80 10 36 4 79 9 95 11 17 2 55 6 85 10 30 3 58 8
62 10 10 6 25 -25 32 -66 23 -141 73 -295 125 -390 48 -86 184 -205 306 -268
l40 -20 0 589 c-1 366 -4 592 -10 597 -6 5 -91 32 -190 62 -99 29 -256 78
-350 110 -468 157 -593 234 -825 506 -111 130 -205 329 -244 519 -34 169 -39
409 -11 565 3 14 7 39 10 56 24 149 123 376 226 515 78 107 221 245 325 315
215 144 491 243 779 280 28 3 52 7 55 9 7 4 181 19 207 17 11 -1 23 4 25 11 2
6 4 81 3 165 l-1 152 256 0 256 0 -1 -160z"/>
<path d="M3233 5245 c-263 -114 -346 -222 -337 -434 7 -146 55 -235 169 -313
61 -42 185 -101 194 -93 3 4 6 197 6 431 0 233 0 424 0 424 0 -1 -15 -7 -32
-15z"/>
<path d="M3775 2491 c0 -291 3 -533 7 -536 10 -10 141 32 226 73 286 135 398
450 246 693 -61 99 -164 172 -365 259 -51 22 -97 40 -103 40 -8 0 -11 -155
-11 -529z"/>
</g>
</svg>
